<svg id="visual" viewBox="0 0 920 250" width="920" height="250" xmlns="http://www.w3.org/2000/svg"
     xmlns:xlink="http://www.w3.org/1999/xlink" version="1.1">
    <rect x="0" y="0" width="920" height="250" fill="#0f0f10"></rect>
    <path d="M0 46L17 47.8C34 49.7 68 53.3 102 56.2C136 59 170 61 204.2 64.2C238.3 67.3 272.7 71.7 306.8 72C341 72.3 375 68.7 409 68.3C443 68 477 71 511 67.5C545 64 579 54 613.2 51.3C647.3 48.7 681.7 53.3 715.8 59.7C750 66 784 74 818 78.3C852 82.7 886 83.3 903 83.7L920 84L920 251L903 251C886 251 852 251 818 251C784 251 750 251 715.8 251C681.7 251 647.3 251 613.2 251C579 251 545 251 511 251C477 251 443 251 409 251C375 251 341 251 306.8 251C272.7 251 238.3 251 204.2 251C170 251 136 251 102 251C68 251 34 251 17 251L0 251Z"
          fill="#c62368"></path>
    <path d="M0 132L17 125.7C34 119.3 68 106.7 102 105.2C136 103.7 170 113.3 204.2 113.8C238.3 114.3 272.7 105.7 306.8 106.3C341 107 375 117 409 122.3C443 127.7 477 128.3 511 126.3C545 124.3 579 119.7 613.2 114.5C647.3 109.3 681.7 103.7 715.8 106.3C750 109 784 120 818 120C852 120 886 109 903 103.5L920 98L920 251L903 251C886 251 852 251 818 251C784 251 750 251 715.8 251C681.7 251 647.3 251 613.2 251C579 251 545 251 511 251C477 251 443 251 409 251C375 251 341 251 306.8 251C272.7 251 238.3 251 204.2 251C170 251 136 251 102 251C68 251 34 251 17 251L0 251Z"
          fill="#8a225b"></path>
    <path d="M0 169L17 167.5C34 166 68 163 102 157.2C136 151.3 170 142.7 204.2 142C238.3 141.3 272.7 148.7 306.8 149C341 149.3 375 142.7 409 146C443 149.3 477 162.7 511 168.3C545 174 579 172 613.2 169.7C647.3 167.3 681.7 164.7 715.8 162.8C750 161 784 160 818 155.5C852 151 886 143 903 139L920 135L920 251L903 251C886 251 852 251 818 251C784 251 750 251 715.8 251C681.7 251 647.3 251 613.2 251C579 251 545 251 511 251C477 251 443 251 409 251C375 251 341 251 306.8 251C272.7 251 238.3 251 204.2 251C170 251 136 251 102 251C68 251 34 251 17 251L0 251Z"
          fill="#521c43"></path>
    <path d="M0 189L17 193.2C34 197.3 68 205.7 102 207.5C136 209.3 170 204.7 204.2 201.3C238.3 198 272.7 196 306.8 194.2C341 192.3 375 190.7 409 191.7C443 192.7 477 196.3 511 198.7C545 201 579 202 613.2 201.2C647.3 200.3 681.7 197.7 715.8 193.8C750 190 784 185 818 183.2C852 181.3 886 182.7 903 183.3L920 184L920 251L903 251C886 251 852 251 818 251C784 251 750 251 715.8 251C681.7 251 647.3 251 613.2 251C579 251 545 251 511 251C477 251 443 251 409 251C375 251 341 251 306.8 251C272.7 251 238.3 251 204.2 251C170 251 136 251 102 251C68 251 34 251 17 251L0 251Z"
          fill="#231123"></path>
</svg>