<svg id="visual" viewBox="0 0 900 600" width="900" height="600" xmlns="http://www.w3.org/2000/svg"
     xmlns:xlink="http://www.w3.org/1999/xlink" version="1.1">
    <path d="M0 61L82 61L82 49L164 49L164 61L245 61L245 79L327 79L327 73L409 73L409 79L491 79L491 139L573 139L573 91L655 91L655 91L736 91L736 79L818 79L818 79L900 79L900 97L900 0L900 0L818 0L818 0L736 0L736 0L655 0L655 0L573 0L573 0L491 0L491 0L409 0L409 0L327 0L327 0L245 0L245 0L164 0L164 0L82 0L82 0L0 0Z"
          fill="#231123"></path>
    <path d="M0 109L82 109L82 91L164 91L164 175L245 175L245 139L327 139L327 175L409 175L409 145L491 145L491 193L573 193L573 163L655 163L655 133L736 133L736 115L818 115L818 133L900 133L900 181L900 95L900 77L818 77L818 77L736 77L736 89L655 89L655 89L573 89L573 137L491 137L491 77L409 77L409 71L327 71L327 77L245 77L245 59L164 59L164 47L82 47L82 59L0 59Z"
          fill="#200d20"></path>
    <path d="M0 199L82 199L82 265L164 265L164 307L245 307L245 235L327 235L327 289L409 289L409 259L491 259L491 373L573 373L573 295L655 295L655 319L736 319L736 205L818 205L818 373L900 373L900 349L900 179L900 131L818 131L818 113L736 113L736 131L655 131L655 161L573 161L573 191L491 191L491 143L409 143L409 173L327 173L327 137L245 137L245 173L164 173L164 89L82 89L82 107L0 107Z"
          fill="#1d081d"></path>
    <path d="M0 283L82 283L82 307L164 307L164 349L245 349L245 289L327 289L327 343L409 343L409 289L491 289L491 445L573 445L573 325L655 325L655 385L736 385L736 247L818 247L818 409L900 409L900 385L900 347L900 371L818 371L818 203L736 203L736 317L655 317L655 293L573 293L573 371L491 371L491 257L409 257L409 287L327 287L327 233L245 233L245 305L164 305L164 263L82 263L82 197L0 197Z"
          fill="#1b021a"></path>
    <path d="M0 337L82 337L82 397L164 397L164 397L245 397L245 373L327 373L327 415L409 415L409 355L491 355L491 487L573 487L573 385L655 385L655 463L736 463L736 343L818 343L818 505L900 505L900 415L900 383L900 407L818 407L818 245L736 245L736 383L655 383L655 323L573 323L573 443L491 443L491 287L409 287L409 341L327 341L327 287L245 287L245 347L164 347L164 305L82 305L82 281L0 281Z"
          fill="#180017"></path>
    <path d="M0 601L82 601L82 601L164 601L164 601L245 601L245 601L327 601L327 601L409 601L409 601L491 601L491 601L573 601L573 601L655 601L655 601L736 601L736 601L818 601L818 601L900 601L900 601L900 413L900 503L818 503L818 341L736 341L736 461L655 461L655 383L573 383L573 485L491 485L491 353L409 353L409 413L327 413L327 371L245 371L245 395L164 395L164 395L82 395L82 335L0 335Z"
          fill="#000000"></path>
</svg>