<svg id="visual" viewBox="0 0 900 600" width="900" height="600" xmlns="http://www.w3.org/2000/svg" xmlns:xlink="http://www.w3.org/1999/xlink" version="1.1"><rect x="0" y="0" width="900" height="600" fill="#001220"></rect><defs><linearGradient id="grad1_0" x1="33.3%" y1="0%" x2="100%" y2="100%"><stop offset="20%" stop-color="#001220" stop-opacity="1"></stop><stop offset="80%" stop-color="#001220" stop-opacity="1"></stop></linearGradient></defs><defs><linearGradient id="grad2_0" x1="0%" y1="0%" x2="66.7%" y2="100%"><stop offset="20%" stop-color="#001220" stop-opacity="1"></stop><stop offset="80%" stop-color="#001220" stop-opacity="1"></stop></linearGradient></defs><g transform="translate(900, 0)"><path d="M0 486.7C-69.6 486.6 -139.2 486.4 -186.3 449.7C-233.3 413 -257.9 339.8 -287.8 287.8C-317.7 235.7 -353 204.8 -387.1 160.3C-421.2 115.9 -454 57.9 -486.7 0L0 0Z" fill="#cc2b5e"></path></g><g transform="translate(0, 600)"><path d="M0 -486.7C51.5 -451.1 102.9 -415.4 164.6 -397.3C226.2 -379.2 298 -378.6 344.2 -344.2C390.4 -309.7 411 -241.3 430.5 -178.3C450 -115.3 468.4 -57.7 486.7 0L0 0Z" fill="#cc2b5e"></path></g></svg>