<svg id="visual" viewBox="0 0 900 600" width="900" height="600" xmlns="http://www.w3.org/2000/svg" xmlns:xlink="http://www.w3.org/1999/xlink" version="1.1"><rect x="0" y="0" width="900" height="600" fill="#570F2D"></rect><defs><linearGradient id="grad1_0" x1="33.3%" y1="0%" x2="100%" y2="100%"><stop offset="20%" stop-color="#570F2D" stop-opacity="1"></stop><stop offset="80%" stop-color="#570F2D" stop-opacity="1"></stop></linearGradient></defs><defs><linearGradient id="grad2_0" x1="0%" y1="0%" x2="66.7%" y2="100%"><stop offset="20%" stop-color="#570F2D" stop-opacity="1"></stop><stop offset="80%" stop-color="#570F2D" stop-opacity="1"></stop></linearGradient></defs><g transform="translate(900, 0)"><path d="M0 486.7C-45.1 435.3 -90.3 383.9 -152.3 367.7C-214.3 351.5 -293.3 370.6 -344.2 344.2C-395.1 317.8 -417.9 245.9 -437 181C-456.1 116.1 -471.4 58 -486.7 0L0 0Z" fill="#001220"></path></g><g transform="translate(0, 600)"><path d="M0 -486.7C59 -473.9 118 -461 182.9 -441.6C247.9 -422.3 318.7 -396.4 344.2 -344.2C369.6 -291.9 349.7 -213.3 365.9 -151.5C382 -89.8 434.4 -44.9 486.7 0L0 0Z" fill="#001220"></path></g></svg>