<svg id="visual" viewBox="0 0 920 250" width="920" height="250" xmlns="http://www.w3.org/2000/svg" xmlns:xlink="http://www.w3.org/1999/xlink" version="1.1"><rect x="0" y="0" width="920" height="250" fill="#0f0f10"></rect><path d="M0 111L21.8 110.2C43.7 109.3 87.3 107.7 131.2 100.8C175 94 219 82 262.8 76C306.7 70 350.3 70 394.2 73.3C438 76.7 482 83.3 525.8 86.2C569.7 89 613.3 88 657.2 87.3C701 86.7 745 86.3 788.8 89C832.7 91.7 876.3 97.3 898.2 100.2L920 103L920 251L898.2 251C876.3 251 832.7 251 788.8 251C745 251 701 251 657.2 251C613.3 251 569.7 251 525.8 251C482 251 438 251 394.2 251C350.3 251 306.7 251 262.8 251C219 251 175 251 131.2 251C87.3 251 43.7 251 21.8 251L0 251Z" fill="#061700"></path><path d="M0 99L21.8 108.3C43.7 117.7 87.3 136.3 131.2 141.7C175 147 219 139 262.8 136.3C306.7 133.7 350.3 136.3 394.2 138.8C438 141.3 482 143.7 525.8 141.5C569.7 139.3 613.3 132.7 657.2 127C701 121.3 745 116.7 788.8 119.3C832.7 122 876.3 132 898.2 137L920 142L920 251L898.2 251C876.3 251 832.7 251 788.8 251C745 251 701 251 657.2 251C613.3 251 569.7 251 525.8 251C482 251 438 251 394.2 251C350.3 251 306.7 251 262.8 251C219 251 175 251 131.2 251C87.3 251 43.7 251 21.8 251L0 251Z" fill="#193c14"></path><path d="M0 153L21.8 153.2C43.7 153.3 87.3 153.7 131.2 158.3C175 163 219 172 262.8 170.8C306.7 169.7 350.3 158.3 394.2 151C438 143.7 482 140.3 525.8 144.7C569.7 149 613.3 161 657.2 161.5C701 162 745 151 788.8 146.2C832.7 141.3 876.3 142.7 898.2 143.3L920 144L920 251L898.2 251C876.3 251 832.7 251 788.8 251C745 251 701 251 657.2 251C613.3 251 569.7 251 525.8 251C482 251 438 251 394.2 251C350.3 251 306.7 251 262.8 251C219 251 175 251 131.2 251C87.3 251 43.7 251 21.8 251L0 251Z" fill="#296620"></path><path d="M0 174L21.8 173.3C43.7 172.7 87.3 171.3 131.2 171.7C175 172 219 174 262.8 173.8C306.7 173.7 350.3 171.3 394.2 172.5C438 173.7 482 178.3 525.8 180.7C569.7 183 613.3 183 657.2 186C701 189 745 195 788.8 197.5C832.7 200 876.3 199 898.2 198.5L920 198L920 251L898.2 251C876.3 251 832.7 251 788.8 251C745 251 701 251 657.2 251C613.3 251 569.7 251 525.8 251C482 251 438 251 394.2 251C350.3 251 306.7 251 262.8 251C219 251 175 251 131.2 251C87.3 251 43.7 251 21.8 251L0 251Z" fill="#3c932b"></path><path d="M0 202L21.8 205.2C43.7 208.3 87.3 214.7 131.2 217.5C175 220.3 219 219.7 262.8 219.8C306.7 220 350.3 221 394.2 219C438 217 482 212 525.8 212.8C569.7 213.7 613.3 220.3 657.2 222.3C701 224.3 745 221.7 788.8 218.8C832.7 216 876.3 213 898.2 211.5L920 210L920 251L898.2 251C876.3 251 832.7 251 788.8 251C745 251 701 251 657.2 251C613.3 251 569.7 251 525.8 251C482 251 438 251 394.2 251C350.3 251 306.7 251 262.8 251C219 251 175 251 131.2 251C87.3 251 43.7 251 21.8 251L0 251Z" fill="#52c234"></path></svg>