<svg id="visual" viewBox="0 0 900 600" width="900" height="600" xmlns="http://www.w3.org/2000/svg" xmlns:xlink="http://www.w3.org/1999/xlink" version="1.1"><g stroke-width="1" stroke-linejoin="bevel"><path d="M454 300L445 208L355.5 295Z" fill="#b52761" stroke="#b52761"></path><path d="M445 208L316.5 162L355.5 295Z" fill="#cc2b5e" stroke="#cc2b5e"></path><path d="M539.5 405L557.5 313L454 300Z" fill="#572353" stroke="#572353"></path><path d="M454 300L557.5 313L445 208Z" fill="#6e255b" stroke="#6e255b"></path><path d="M316.5 162L250 213L355.5 295Z" fill="#862660" stroke="#862660"></path><path d="M445 208L372.5 93L316.5 162Z" fill="#862660" stroke="#862660"></path><path d="M316.5 162L224 77L250 213Z" fill="#cc2b5e" stroke="#cc2b5e"></path><path d="M487 104L372.5 93L445 208Z" fill="#1e162f" stroke="#1e162f"></path><path d="M588.5 166L487 104L445 208Z" fill="#2f1c3d" stroke="#2f1c3d"></path><path d="M318.5 434L476 419L355.5 295Z" fill="#862660" stroke="#862660"></path><path d="M355.5 295L476 419L454 300Z" fill="#572353" stroke="#572353"></path><path d="M250 213L233 298L355.5 295Z" fill="#000011" stroke="#000011"></path><path d="M219 365L318.5 434L355.5 295Z" fill="#572353" stroke="#572353"></path><path d="M476 419L539.5 405L454 300Z" fill="#120e21" stroke="#120e21"></path><path d="M673 270L588.5 166L557.5 313Z" fill="#1e162f" stroke="#1e162f"></path><path d="M557.5 313L588.5 166L445 208Z" fill="#572353" stroke="#572353"></path><path d="M100.5 329L219 365L233 298Z" fill="#120e21" stroke="#120e21"></path><path d="M233 298L219 365L355.5 295Z" fill="#000011" stroke="#000011"></path><path d="M588.5 166L559.5 96L487 104Z" fill="#2f1c3d" stroke="#2f1c3d"></path><path d="M487 104L454 0L372.5 93Z" fill="#000011" stroke="#000011"></path><path d="M476 419L481 487L539.5 405Z" fill="#1e162f" stroke="#1e162f"></path><path d="M318.5 434L481 487L476 419Z" fill="#2f1c3d" stroke="#2f1c3d"></path><path d="M238 481L316.5 494L318.5 434Z" fill="#b52761" stroke="#b52761"></path><path d="M318.5 434L316.5 494L481 487Z" fill="#2f1c3d" stroke="#2f1c3d"></path><path d="M372.5 93L224 77L316.5 162Z" fill="#1e162f" stroke="#1e162f"></path><path d="M75.5 185L100.5 329L233 298Z" fill="#862660" stroke="#862660"></path><path d="M303.5 0L224 77L372.5 93Z" fill="#2f1c3d" stroke="#2f1c3d"></path><path d="M528.5 0L454 0L487 104Z" fill="#422049" stroke="#422049"></path><path d="M685 412L557.5 313L539.5 405Z" fill="#9e2662" stroke="#9e2662"></path><path d="M685 412L673 270L557.5 313Z" fill="#120e21" stroke="#120e21"></path><path d="M588.5 166L669 103L559.5 96Z" fill="#b52761" stroke="#b52761"></path><path d="M454 0L303.5 0L372.5 93Z" fill="#1e162f" stroke="#1e162f"></path><path d="M219 365L238 481L318.5 434Z" fill="#2f1c3d" stroke="#2f1c3d"></path><path d="M673 270L685 208L588.5 166Z" fill="#422049" stroke="#422049"></path><path d="M559.5 96L528.5 0L487 104Z" fill="#422049" stroke="#422049"></path><path d="M658 0L528.5 0L559.5 96Z" fill="#120e21" stroke="#120e21"></path><path d="M685 208L669 103L588.5 166Z" fill="#572353" stroke="#572353"></path><path d="M303.5 0L240 0L224 77Z" fill="#9e2662" stroke="#9e2662"></path><path d="M240 0L138.5 95L224 77Z" fill="#862660" stroke="#862660"></path><path d="M224 77L138.5 95L250 213Z" fill="#422049" stroke="#422049"></path><path d="M219 365L82.5 380L238 481Z" fill="#000011" stroke="#000011"></path><path d="M75.5 185L233 298L250 213Z" fill="#b52761" stroke="#b52761"></path><path d="M575.5 530L685 412L539.5 405Z" fill="#572353" stroke="#572353"></path><path d="M673 270L763.5 217L685 208Z" fill="#cc2b5e" stroke="#cc2b5e"></path><path d="M525.5 600L575.5 530L481 487Z" fill="#572353" stroke="#572353"></path><path d="M481 487L575.5 530L539.5 405Z" fill="#572353" stroke="#572353"></path><path d="M138.5 95L75.5 185L250 213Z" fill="#1e162f" stroke="#1e162f"></path><path d="M236 600L356.5 600L316.5 494Z" fill="#1e162f" stroke="#1e162f"></path><path d="M316.5 494L356.5 600L481 487Z" fill="#422049" stroke="#422049"></path><path d="M0 375L82.5 380L100.5 329Z" fill="#cc2b5e" stroke="#cc2b5e"></path><path d="M100.5 329L82.5 380L219 365Z" fill="#9e2662" stroke="#9e2662"></path><path d="M238 481L236 600L316.5 494Z" fill="#9e2662" stroke="#9e2662"></path><path d="M356.5 600L478 600L481 487Z" fill="#000011" stroke="#000011"></path><path d="M769.5 324L763.5 217L673 270Z" fill="#9e2662" stroke="#9e2662"></path><path d="M685 208L763.5 217L669 103Z" fill="#862660" stroke="#862660"></path><path d="M669 103L658 0L559.5 96Z" fill="#b52761" stroke="#b52761"></path><path d="M803.5 0L658 0L669 103Z" fill="#2f1c3d" stroke="#2f1c3d"></path><path d="M478 600L525.5 600L481 487Z" fill="#2f1c3d" stroke="#2f1c3d"></path><path d="M575.5 530L678 517L685 412Z" fill="#1e162f" stroke="#1e162f"></path><path d="M803.5 408L769.5 324L685 412Z" fill="#cc2b5e" stroke="#cc2b5e"></path><path d="M685 412L769.5 324L673 270Z" fill="#862660" stroke="#862660"></path><path d="M637 600L678 517L575.5 530Z" fill="#572353" stroke="#572353"></path><path d="M77.5 511L236 600L238 481Z" fill="#cc2b5e" stroke="#cc2b5e"></path><path d="M75.5 185L0 288L100.5 329Z" fill="#cc2b5e" stroke="#cc2b5e"></path><path d="M82.5 380L77.5 511L238 481Z" fill="#422049" stroke="#422049"></path><path d="M0 167L0 288L75.5 185Z" fill="#422049" stroke="#422049"></path><path d="M525.5 600L637 600L575.5 530Z" fill="#1e162f" stroke="#1e162f"></path><path d="M0 497L77.5 511L82.5 380Z" fill="#2f1c3d" stroke="#2f1c3d"></path><path d="M240 0L81.5 0L138.5 95Z" fill="#b52761" stroke="#b52761"></path><path d="M0 93L0 167L75.5 185Z" fill="#422049" stroke="#422049"></path><path d="M0 93L75.5 185L138.5 95Z" fill="#120e21" stroke="#120e21"></path><path d="M0 288L0 375L100.5 329Z" fill="#cc2b5e" stroke="#cc2b5e"></path><path d="M787.5 475L685 412L678 517Z" fill="#572353" stroke="#572353"></path><path d="M787.5 475L803.5 408L685 412Z" fill="#572353" stroke="#572353"></path><path d="M900 196L824.5 103L763.5 217Z" fill="#1e162f" stroke="#1e162f"></path><path d="M773.5 600L787.5 475L678 517Z" fill="#120e21" stroke="#120e21"></path><path d="M81.5 0L0 93L138.5 95Z" fill="#9e2662" stroke="#9e2662"></path><path d="M900 287L763.5 217L769.5 324Z" fill="#b52761" stroke="#b52761"></path><path d="M763.5 217L824.5 103L669 103Z" fill="#572353" stroke="#572353"></path><path d="M77.5 511L94.5 600L236 600Z" fill="#b52761" stroke="#b52761"></path><path d="M0 600L94.5 600L77.5 511Z" fill="#000011" stroke="#000011"></path><path d="M0 375L0 497L82.5 380Z" fill="#b52761" stroke="#b52761"></path><path d="M824.5 103L803.5 0L669 103Z" fill="#572353" stroke="#572353"></path><path d="M81.5 0L0 0L0 93Z" fill="#120e21" stroke="#120e21"></path><path d="M900 414L900 287L803.5 408Z" fill="#000011" stroke="#000011"></path><path d="M803.5 408L900 287L769.5 324Z" fill="#422049" stroke="#422049"></path><path d="M824.5 103L900 0L803.5 0Z" fill="#000011" stroke="#000011"></path><path d="M900 287L900 196L763.5 217Z" fill="#1e162f" stroke="#1e162f"></path><path d="M900 463L900 414L803.5 408Z" fill="#422049" stroke="#422049"></path><path d="M637 600L773.5 600L678 517Z" fill="#862660" stroke="#862660"></path><path d="M900 196L900 127L824.5 103Z" fill="#862660" stroke="#862660"></path><path d="M900 463L803.5 408L787.5 475Z" fill="#6e255b" stroke="#6e255b"></path><path d="M0 497L0 600L77.5 511Z" fill="#1e162f" stroke="#1e162f"></path><path d="M900 600L900 463L787.5 475Z" fill="#b52761" stroke="#b52761"></path><path d="M900 127L900 0L824.5 103Z" fill="#6e255b" stroke="#6e255b"></path><path d="M773.5 600L900 600L787.5 475Z" fill="#1e162f" stroke="#1e162f"></path></g></svg>