<svg id="visual" viewBox="0 0 900 600" width="900" height="600" xmlns="http://www.w3.org/2000/svg"
     xmlns:xlink="http://www.w3.org/1999/xlink" version="1.1">
    <path d="M0 79L82 55L164 85L245 55L327 73L409 61L491 37L573 73L655 49L736 61L818 49L900 61L900 0L818 0L736 0L655 0L573 0L491 0L409 0L327 0L245 0L164 0L82 0L0 0Z"
          fill="#000000"></path>
    <path d="M0 205L82 175L164 289L245 175L327 241L409 247L491 187L573 247L655 271L736 229L818 229L900 175L900 59L818 47L736 59L655 47L573 71L491 35L409 59L327 71L245 53L164 83L82 53L0 77Z"
          fill="#030304"></path>
    <path d="M0 241L82 235L164 331L245 211L327 301L409 289L491 241L573 295L655 307L736 283L818 265L900 211L900 173L818 227L736 227L655 269L573 245L491 185L409 245L327 239L245 173L164 287L82 173L0 203Z"
          fill="#050506"></path>
    <path d="M0 283L82 271L164 367L245 247L327 343L409 319L491 277L573 331L655 361L736 343L818 295L900 277L900 209L818 263L736 281L655 305L573 293L491 239L409 287L327 299L245 209L164 329L82 233L0 239Z"
          fill="#080809"></path>
    <path d="M0 463L82 469L164 469L245 427L327 463L409 439L491 451L573 433L655 469L736 415L818 391L900 433L900 275L818 293L736 341L655 359L573 329L491 275L409 317L327 341L245 245L164 365L82 269L0 281Z"
          fill="#0b0b0c"></path>
    <path d="M0 523L82 553L164 553L245 547L327 541L409 547L491 505L573 511L655 541L736 529L818 529L900 523L900 431L818 389L736 413L655 467L573 431L491 449L409 437L327 461L245 425L164 467L82 467L0 461Z"
          fill="#0d0d0e"></path>
    <path d="M0 601L82 601L164 601L245 601L327 601L409 601L491 601L573 601L655 601L736 601L818 601L900 601L900 521L818 527L736 527L655 539L573 509L491 503L409 545L327 539L245 545L164 551L82 551L0 521Z"
          fill="#0f0f10"></path>
</svg>