<svg id="visual" viewBox="0 0 900 600" width="900" height="600" xmlns="http://www.w3.org/2000/svg" xmlns:xlink="http://www.w3.org/1999/xlink" version="1.1"><path d="M0 157L82 157L82 199L164 199L164 181L245 181L245 157L327 157L327 211L409 211L409 193L491 193L491 133L573 133L573 145L655 145L655 247L736 247L736 223L818 223L818 109L900 109L900 163L900 0L900 0L818 0L818 0L736 0L736 0L655 0L655 0L573 0L573 0L491 0L491 0L409 0L409 0L327 0L327 0L245 0L245 0L164 0L164 0L82 0L82 0L0 0Z" fill="#e2adf2"></path><path d="M0 373L82 373L82 397L164 397L164 379L245 379L245 301L327 301L327 325L409 325L409 349L491 349L491 373L573 373L573 367L655 367L655 409L736 409L736 385L818 385L818 337L900 337L900 313L900 161L900 107L818 107L818 221L736 221L736 245L655 245L655 143L573 143L573 131L491 131L491 191L409 191L409 209L327 209L327 155L245 155L245 179L164 179L164 197L82 197L82 155L0 155Z" fill="#9a8bc7"></path><path d="M0 457L82 457L82 469L164 469L164 445L245 445L245 409L327 409L327 457L409 457L409 451L491 451L491 427L573 427L573 487L655 487L655 517L736 517L736 469L818 469L818 439L900 439L900 487L900 311L900 335L818 335L818 383L736 383L736 407L655 407L655 365L573 365L573 371L491 371L491 347L409 347L409 323L327 323L327 299L245 299L245 377L164 377L164 395L82 395L82 371L0 371Z" fill="#5b6897"></path><path d="M0 517L82 517L82 547L164 547L164 541L245 541L245 517L327 517L327 505L409 505L409 499L491 499L491 541L573 541L573 541L655 541L655 559L736 559L736 565L818 565L818 553L900 553L900 547L900 485L900 437L818 437L818 467L736 467L736 515L655 515L655 485L573 485L573 425L491 425L491 449L409 449L409 455L327 455L327 407L245 407L245 443L164 443L164 467L82 467L82 455L0 455Z" fill="#274564"></path><path d="M0 601L82 601L82 601L164 601L164 601L245 601L245 601L327 601L327 601L409 601L409 601L491 601L491 601L573 601L573 601L655 601L655 601L736 601L736 601L818 601L818 601L900 601L900 601L900 545L900 551L818 551L818 563L736 563L736 557L655 557L655 539L573 539L573 539L491 539L491 497L409 497L409 503L327 503L327 515L245 515L245 539L164 539L164 545L82 545L82 515L0 515Z" fill="#002233"></path></svg>