<svg id="visual" viewBox="0 0 920 250" width="920" height="250" xmlns="http://www.w3.org/2000/svg" xmlns:xlink="http://www.w3.org/1999/xlink" version="1.1"><rect x="0" y="0" width="920" height="250" fill="#002233"></rect><path d="M0 170L21.8 170.5C43.7 171 87.3 172 131.2 174.3C175 176.7 219 180.3 262.8 180.8C306.7 181.3 350.3 178.7 394.2 176.3C438 174 482 172 525.8 171.2C569.7 170.3 613.3 170.7 657.2 168.7C701 166.7 745 162.3 788.8 158.2C832.7 154 876.3 150 898.2 148L920 146L920 251L898.2 251C876.3 251 832.7 251 788.8 251C745 251 701 251 657.2 251C613.3 251 569.7 251 525.8 251C482 251 438 251 394.2 251C350.3 251 306.7 251 262.8 251C219 251 175 251 131.2 251C87.3 251 43.7 251 21.8 251L0 251Z" fill="#002b3d"></path><path d="M0 189L21.8 190.2C43.7 191.3 87.3 193.7 131.2 190.7C175 187.7 219 179.3 262.8 177C306.7 174.7 350.3 178.3 394.2 182C438 185.7 482 189.3 525.8 187.7C569.7 186 613.3 179 657.2 178C701 177 745 182 788.8 185.8C832.7 189.7 876.3 192.3 898.2 193.7L920 195L920 251L898.2 251C876.3 251 832.7 251 788.8 251C745 251 701 251 657.2 251C613.3 251 569.7 251 525.8 251C482 251 438 251 394.2 251C350.3 251 306.7 251 262.8 251C219 251 175 251 131.2 251C87.3 251 43.7 251 21.8 251L0 251Z" fill="#003247"></path><path d="M0 207L21.8 205C43.7 203 87.3 199 131.2 199.7C175 200.3 219 205.7 262.8 207C306.7 208.3 350.3 205.7 394.2 202.3C438 199 482 195 525.8 194.5C569.7 194 613.3 197 657.2 196.7C701 196.3 745 192.7 788.8 192.8C832.7 193 876.3 197 898.2 199L920 201L920 251L898.2 251C876.3 251 832.7 251 788.8 251C745 251 701 251 657.2 251C613.3 251 569.7 251 525.8 251C482 251 438 251 394.2 251C350.3 251 306.7 251 262.8 251C219 251 175 251 131.2 251C87.3 251 43.7 251 21.8 251L0 251Z" fill="#003951"></path><path d="M0 219L21.8 216.5C43.7 214 87.3 209 131.2 208.3C175 207.7 219 211.3 262.8 213.2C306.7 215 350.3 215 394.2 213.7C438 212.3 482 209.7 525.8 210.5C569.7 211.3 613.3 215.7 657.2 218.2C701 220.7 745 221.3 788.8 219.7C832.7 218 876.3 214 898.2 212L920 210L920 251L898.2 251C876.3 251 832.7 251 788.8 251C745 251 701 251 657.2 251C613.3 251 569.7 251 525.8 251C482 251 438 251 394.2 251C350.3 251 306.7 251 262.8 251C219 251 175 251 131.2 251C87.3 251 43.7 251 21.8 251L0 251Z" fill="#00405b"></path><path d="M0 218L21.8 218C43.7 218 87.3 218 131.2 219.8C175 221.7 219 225.3 262.8 228.3C306.7 231.3 350.3 233.7 394.2 233.8C438 234 482 232 525.8 231.7C569.7 231.3 613.3 232.7 657.2 232.5C701 232.3 745 230.7 788.8 229C832.7 227.3 876.3 225.7 898.2 224.8L920 224L920 251L898.2 251C876.3 251 832.7 251 788.8 251C745 251 701 251 657.2 251C613.3 251 569.7 251 525.8 251C482 251 438 251 394.2 251C350.3 251 306.7 251 262.8 251C219 251 175 251 131.2 251C87.3 251 43.7 251 21.8 251L0 251Z" fill="#004766"></path></svg>