<svg id="visual" viewBox="0 0 900 300" width="900" height="300" xmlns="http://www.w3.org/2000/svg"
     xmlns:xlink="http://www.w3.org/1999/xlink" version="1.1">
    <rect x="0" y="0" width="900" height="300" fill="#001D29"></rect>
    <path d="M0 278L12.5 279.2C25 280.3 50 282.7 75 279.5C100 276.3 125 267.7 150 267.7C175 267.7 200 276.3 225 280.7C250 285 275 285 300 280.3C325 275.7 350 266.3 375 265.5C400 264.7 425 272.3 450 275C475 277.7 500 275.3 525 273.8C550 272.3 575 271.7 600 270.3C625 269 650 267 675 268.5C700 270 725 275 750 278.5C775 282 800 284 825 280C850 276 875 266 887.5 261L900 256L900 301L887.5 301C875 301 850 301 825 301C800 301 775 301 750 301C725 301 700 301 675 301C650 301 625 301 600 301C575 301 550 301 525 301C500 301 475 301 450 301C425 301 400 301 375 301C350 301 325 301 300 301C275 301 250 301 225 301C200 301 175 301 150 301C125 301 100 301 75 301C50 301 25 301 12.5 301L0 301Z"
          fill="#002233" stroke-linecap="round" stroke-linejoin="miter"></path>
</svg>