<svg id="visual" viewBox="0 0 920 250" width="920" height="250" xmlns="http://www.w3.org/2000/svg" xmlns:xlink="http://www.w3.org/1999/xlink" version="1.1"><rect x="0" y="0" width="920" height="250" fill="#000000"></rect><path d="M0 137L21.8 137.8C43.7 138.7 87.3 140.3 131.2 147.2C175 154 219 166 262.8 172C306.7 178 350.3 178 394.2 174.7C438 171.3 482 164.7 525.8 161.8C569.7 159 613.3 160 657.2 160.7C701 161.3 745 161.7 788.8 159C832.7 156.3 876.3 150.7 898.2 147.8L920 145L920 0L898.2 0C876.3 0 832.7 0 788.8 0C745 0 701 0 657.2 0C613.3 0 569.7 0 525.8 0C482 0 438 0 394.2 0C350.3 0 306.7 0 262.8 0C219 0 175 0 131.2 0C87.3 0 43.7 0 21.8 0L0 0Z" fill="#753a88"></path><path d="M0 149L21.8 139.7C43.7 130.3 87.3 111.7 131.2 106.3C175 101 219 109 262.8 111.7C306.7 114.3 350.3 111.7 394.2 109.2C438 106.7 482 104.3 525.8 106.5C569.7 108.7 613.3 115.3 657.2 121C701 126.7 745 131.3 788.8 128.7C832.7 126 876.3 116 898.2 111L920 106L920 0L898.2 0C876.3 0 832.7 0 788.8 0C745 0 701 0 657.2 0C613.3 0 569.7 0 525.8 0C482 0 438 0 394.2 0C350.3 0 306.7 0 262.8 0C219 0 175 0 131.2 0C87.3 0 43.7 0 21.8 0L0 0Z" fill="#903483"></path><path d="M0 95L21.8 94.8C43.7 94.7 87.3 94.3 131.2 89.7C175 85 219 76 262.8 77.2C306.7 78.3 350.3 89.7 394.2 97C438 104.3 482 107.7 525.8 103.3C569.7 99 613.3 87 657.2 86.5C701 86 745 97 788.8 101.8C832.7 106.7 876.3 105.3 898.2 104.7L920 104L920 0L898.2 0C876.3 0 832.7 0 788.8 0C745 0 701 0 657.2 0C613.3 0 569.7 0 525.8 0C482 0 438 0 394.2 0C350.3 0 306.7 0 262.8 0C219 0 175 0 131.2 0C87.3 0 43.7 0 21.8 0L0 0Z" fill="#a82e7a"></path><path d="M0 74L21.8 74.7C43.7 75.3 87.3 76.7 131.2 76.3C175 76 219 74 262.8 74.2C306.7 74.3 350.3 76.7 394.2 75.5C438 74.3 482 69.7 525.8 67.3C569.7 65 613.3 65 657.2 62C701 59 745 53 788.8 50.5C832.7 48 876.3 49 898.2 49.5L920 50L920 0L898.2 0C876.3 0 832.7 0 788.8 0C745 0 701 0 657.2 0C613.3 0 569.7 0 525.8 0C482 0 438 0 394.2 0C350.3 0 306.7 0 262.8 0C219 0 175 0 131.2 0C87.3 0 43.7 0 21.8 0L0 0Z" fill="#bc2a6d"></path><path d="M0 46L21.8 42.8C43.7 39.7 87.3 33.3 131.2 30.5C175 27.7 219 28.3 262.8 28.2C306.7 28 350.3 27 394.2 29C438 31 482 36 525.8 35.2C569.7 34.3 613.3 27.7 657.2 25.7C701 23.7 745 26.3 788.8 29.2C832.7 32 876.3 35 898.2 36.5L920 38L920 0L898.2 0C876.3 0 832.7 0 788.8 0C745 0 701 0 657.2 0C613.3 0 569.7 0 525.8 0C482 0 438 0 394.2 0C350.3 0 306.7 0 262.8 0C219 0 175 0 131.2 0C87.3 0 43.7 0 21.8 0L0 0Z" fill="#cc2b5e"></path></svg>