<svg id="visual" viewBox="0 0 920 200" width="920" height="200" xmlns="http://www.w3.org/2000/svg"
     xmlns:xlink="http://www.w3.org/1999/xlink" version="1.1">
    <rect x="0" y="0" width="920" height="200" fill="#0f0f10"></rect>
    <path d="M0 72L21.8 69.8C43.7 67.7 87.3 63.3 131.2 61.7C175 60 219 61 262.8 59.2C306.7 57.3 350.3 52.7 394.2 57.3C438 62 482 76 525.8 78.5C569.7 81 613.3 72 657.2 67.7C701 63.3 745 63.7 788.8 59.8C832.7 56 876.3 48 898.2 44L920 40L920 201L898.2 201C876.3 201 832.7 201 788.8 201C745 201 701 201 657.2 201C613.3 201 569.7 201 525.8 201C482 201 438 201 394.2 201C350.3 201 306.7 201 262.8 201C219 201 175 201 131.2 201C87.3 201 43.7 201 21.8 201L0 201Z"
          fill="#c62368"></path>
    <path d="M0 103L21.8 103.5C43.7 104 87.3 105 131.2 98.3C175 91.7 219 77.3 262.8 72.5C306.7 67.7 350.3 72.3 394.2 75.7C438 79 482 81 525.8 83.8C569.7 86.7 613.3 90.3 657.2 94.3C701 98.3 745 102.7 788.8 102.5C832.7 102.3 876.3 97.7 898.2 95.3L920 93L920 201L898.2 201C876.3 201 832.7 201 788.8 201C745 201 701 201 657.2 201C613.3 201 569.7 201 525.8 201C482 201 438 201 394.2 201C350.3 201 306.7 201 262.8 201C219 201 175 201 131.2 201C87.3 201 43.7 201 21.8 201L0 201Z"
          fill="#98225f"></path>
    <path d="M0 112L21.8 114C43.7 116 87.3 120 131.2 122.8C175 125.7 219 127.3 262.8 125.7C306.7 124 350.3 119 394.2 116.3C438 113.7 482 113.3 525.8 113.8C569.7 114.3 613.3 115.7 657.2 117.7C701 119.7 745 122.3 788.8 123C832.7 123.7 876.3 122.3 898.2 121.7L920 121L920 201L898.2 201C876.3 201 832.7 201 788.8 201C745 201 701 201 657.2 201C613.3 201 569.7 201 525.8 201C482 201 438 201 394.2 201C350.3 201 306.7 201 262.8 201C219 201 175 201 131.2 201C87.3 201 43.7 201 21.8 201L0 201Z"
          fill="#6d2050"></path>
    <path d="M0 147L21.8 146.3C43.7 145.7 87.3 144.3 131.2 140C175 135.7 219 128.3 262.8 128.7C306.7 129 350.3 137 394.2 142C438 147 482 149 525.8 149C569.7 149 613.3 147 657.2 144.3C701 141.7 745 138.3 788.8 138.2C832.7 138 876.3 141 898.2 142.5L920 144L920 201L898.2 201C876.3 201 832.7 201 788.8 201C745 201 701 201 657.2 201C613.3 201 569.7 201 525.8 201C482 201 438 201 394.2 201C350.3 201 306.7 201 262.8 201C219 201 175 201 131.2 201C87.3 201 43.7 201 21.8 201L0 201Z"
          fill="#451a3b"></path>
    <path d="M0 180L21.8 179.7C43.7 179.3 87.3 178.7 131.2 175.3C175 172 219 166 262.8 163.3C306.7 160.7 350.3 161.3 394.2 161.3C438 161.3 482 160.7 525.8 161.8C569.7 163 613.3 166 657.2 165.5C701 165 745 161 788.8 159C832.7 157 876.3 157 898.2 157L920 157L920 201L898.2 201C876.3 201 832.7 201 788.8 201C745 201 701 201 657.2 201C613.3 201 569.7 201 525.8 201C482 201 438 201 394.2 201C350.3 201 306.7 201 262.8 201C219 201 175 201 131.2 201C87.3 201 43.7 201 21.8 201L0 201Z"
          fill="#231123"></path>
</svg>