<svg id="visual" viewBox="0 0 900 250" width="900" height="250" xmlns="http://www.w3.org/2000/svg" xmlns:xlink="http://www.w3.org/1999/xlink" version="1.1"><rect x="0" y="0" width="900" height="250" fill="#012233"></rect><path d="M0 60L12.5 59C25 58 50 56 75 57.5C100 59 125 64 150 67.7C175 71.3 200 73.7 225 71.3C250 69 275 62 300 59.8C325 57.7 350 60.3 375 60.8C400 61.3 425 59.7 450 58.8C475 58 500 58 525 58.3C550 58.7 575 59.3 600 61.8C625 64.3 650 68.7 675 70.2C700 71.7 725 70.3 750 71C775 71.7 800 74.3 825 72.7C850 71 875 65 887.5 62L900 59L900 251L887.5 251C875 251 850 251 825 251C800 251 775 251 750 251C725 251 700 251 675 251C650 251 625 251 600 251C575 251 550 251 525 251C500 251 475 251 450 251C425 251 400 251 375 251C350 251 325 251 300 251C275 251 250 251 225 251C200 251 175 251 150 251C125 251 100 251 75 251C50 251 25 251 12.5 251L0 251Z" fill="#013243"></path><path d="M0 71L12.5 72C25 73 50 75 75 74.8C100 74.7 125 72.3 150 72.2C175 72 200 74 225 74.3C250 74.7 275 73.3 300 73.8C325 74.3 350 76.7 375 78.7C400 80.7 425 82.3 450 84C475 85.7 500 87.3 525 87C550 86.7 575 84.3 600 83.7C625 83 650 84 675 81.3C700 78.7 725 72.3 750 70.5C775 68.7 800 71.3 825 75.8C850 80.3 875 86.7 887.5 89.8L900 93L900 251L887.5 251C875 251 850 251 825 251C800 251 775 251 750 251C725 251 700 251 675 251C650 251 625 251 600 251C575 251 550 251 525 251C500 251 475 251 450 251C425 251 400 251 375 251C350 251 325 251 300 251C275 251 250 251 225 251C200 251 175 251 150 251C125 251 100 251 75 251C50 251 25 251 12.5 251L0 251Z" fill="#033041"></path><path d="M0 103L12.5 103.3C25 103.7 50 104.3 75 105.3C100 106.3 125 107.7 150 107.5C175 107.3 200 105.7 225 103C250 100.3 275 96.7 300 95.8C325 95 350 97 375 97.2C400 97.3 425 95.7 450 95C475 94.3 500 94.7 525 95.3C550 96 575 97 600 95.2C625 93.3 650 88.7 675 89.3C700 90 725 96 750 99.2C775 102.3 800 102.7 825 102.8C850 103 875 103 887.5 103L900 103L900 251L887.5 251C875 251 850 251 825 251C800 251 775 251 750 251C725 251 700 251 675 251C650 251 625 251 600 251C575 251 550 251 525 251C500 251 475 251 450 251C425 251 400 251 375 251C350 251 325 251 300 251C275 251 250 251 225 251C200 251 175 251 150 251C125 251 100 251 75 251C50 251 25 251 12.5 251L0 251Z" fill="#052d3f"></path><path d="M0 101L12.5 103.3C25 105.7 50 110.3 75 112.8C100 115.3 125 115.7 150 114C175 112.3 200 108.7 225 108.2C250 107.7 275 110.3 300 111.3C325 112.3 350 111.7 375 113.3C400 115 425 119 450 119.3C475 119.7 500 116.3 525 113.5C550 110.7 575 108.3 600 107.3C625 106.3 650 106.7 675 105.2C700 103.7 725 100.3 750 101.8C775 103.3 800 109.7 825 112.2C850 114.7 875 113.3 887.5 112.7L900 112L900 251L887.5 251C875 251 850 251 825 251C800 251 775 251 750 251C725 251 700 251 675 251C650 251 625 251 600 251C575 251 550 251 525 251C500 251 475 251 450 251C425 251 400 251 375 251C350 251 325 251 300 251C275 251 250 251 225 251C200 251 175 251 150 251C125 251 100 251 75 251C50 251 25 251 12.5 251L0 251Z" fill="#082b3d"></path><path d="M0 124L12.5 123.5C25 123 50 122 75 123C100 124 125 127 150 127.8C175 128.7 200 127.3 225 126C250 124.7 275 123.3 300 121.7C325 120 350 118 375 119.7C400 121.3 425 126.7 450 126.8C475 127 500 122 525 120.7C550 119.3 575 121.7 600 124.8C625 128 650 132 675 134.3C700 136.7 725 137.3 750 135.3C775 133.3 800 128.7 825 128.8C850 129 875 134 887.5 136.5L900 139L900 251L887.5 251C875 251 850 251 825 251C800 251 775 251 750 251C725 251 700 251 675 251C650 251 625 251 600 251C575 251 550 251 525 251C500 251 475 251 450 251C425 251 400 251 375 251C350 251 325 251 300 251C275 251 250 251 225 251C200 251 175 251 150 251C125 251 100 251 75 251C50 251 25 251 12.5 251L0 251Z" fill="#09283b"></path><path d="M0 144L12.5 141.7C25 139.3 50 134.7 75 132.8C100 131 125 132 150 134.7C175 137.3 200 141.7 225 145.2C250 148.7 275 151.3 300 148.5C325 145.7 350 137.3 375 133.7C400 130 425 131 450 131.8C475 132.7 500 133.3 525 133.8C550 134.3 575 134.7 600 137.7C625 140.7 650 146.3 675 146.8C700 147.3 725 142.7 750 139.5C775 136.3 800 134.7 825 136.8C850 139 875 145 887.5 148L900 151L900 251L887.5 251C875 251 850 251 825 251C800 251 775 251 750 251C725 251 700 251 675 251C650 251 625 251 600 251C575 251 550 251 525 251C500 251 475 251 450 251C425 251 400 251 375 251C350 251 325 251 300 251C275 251 250 251 225 251C200 251 175 251 150 251C125 251 100 251 75 251C50 251 25 251 12.5 251L0 251Z" fill="#0b2638"></path><path d="M0 168L12.5 166.5C25 165 50 162 75 161.8C100 161.7 125 164.3 150 164.8C175 165.3 200 163.7 225 164.2C250 164.7 275 167.3 300 168.3C325 169.3 350 168.7 375 164.5C400 160.3 425 152.7 450 151.3C475 150 500 155 525 157C550 159 575 158 600 158.8C625 159.7 650 162.3 675 162.5C700 162.7 725 160.3 750 160.5C775 160.7 800 163.3 825 161.7C850 160 875 154 887.5 151L900 148L900 251L887.5 251C875 251 850 251 825 251C800 251 775 251 750 251C725 251 700 251 675 251C650 251 625 251 600 251C575 251 550 251 525 251C500 251 475 251 450 251C425 251 400 251 375 251C350 251 325 251 300 251C275 251 250 251 225 251C200 251 175 251 150 251C125 251 100 251 75 251C50 251 25 251 12.5 251L0 251Z" fill="#0d2436"></path><path d="M0 164L12.5 164.5C25 165 50 166 75 169.2C100 172.3 125 177.7 150 178.8C175 180 200 177 225 176.5C250 176 275 178 300 179C325 180 350 180 375 179.5C400 179 425 178 450 175C475 172 500 167 525 166C550 165 575 168 600 168.5C625 169 650 167 675 167.5C700 168 725 171 750 171.2C775 171.3 800 168.7 825 169.8C850 171 875 176 887.5 178.5L900 181L900 251L887.5 251C875 251 850 251 825 251C800 251 775 251 750 251C725 251 700 251 675 251C650 251 625 251 600 251C575 251 550 251 525 251C500 251 475 251 450 251C425 251 400 251 375 251C350 251 325 251 300 251C275 251 250 251 225 251C200 251 175 251 150 251C125 251 100 251 75 251C50 251 25 251 12.5 251L0 251Z" fill="#0e2133"></path><path d="M0 185L12.5 183.7C25 182.3 50 179.7 75 181.5C100 183.3 125 189.7 150 193C175 196.3 200 196.7 225 195C250 193.3 275 189.7 300 186.3C325 183 350 180 375 179.5C400 179 425 181 450 183.2C475 185.3 500 187.7 525 187.7C550 187.7 575 185.3 600 183.2C625 181 650 179 675 177.8C700 176.7 725 176.3 750 178.5C775 180.7 800 185.3 825 187C850 188.7 875 187.3 887.5 186.7L900 186L900 251L887.5 251C875 251 850 251 825 251C800 251 775 251 750 251C725 251 700 251 675 251C650 251 625 251 600 251C575 251 550 251 525 251C500 251 475 251 450 251C425 251 400 251 375 251C350 251 325 251 300 251C275 251 250 251 225 251C200 251 175 251 150 251C125 251 100 251 75 251C50 251 25 251 12.5 251L0 251Z" fill="#0f1f30"></path><path d="M0 190L12.5 190.7C25 191.3 50 192.7 75 192.8C100 193 125 192 150 193C175 194 200 197 225 198.8C250 200.7 275 201.3 300 204C325 206.7 350 211.3 375 211.7C400 212 425 208 450 207.7C475 207.3 500 210.7 525 211C550 211.3 575 208.7 600 205.3C625 202 650 198 675 196.8C700 195.7 725 197.3 750 199.2C775 201 800 203 825 205.2C850 207.3 875 209.7 887.5 210.8L900 212L900 251L887.5 251C875 251 850 251 825 251C800 251 775 251 750 251C725 251 700 251 675 251C650 251 625 251 600 251C575 251 550 251 525 251C500 251 475 251 450 251C425 251 400 251 375 251C350 251 325 251 300 251C275 251 250 251 225 251C200 251 175 251 150 251C125 251 100 251 75 251C50 251 25 251 12.5 251L0 251Z" fill="#0f1d2e"></path><path d="M0 231L12.5 228.7C25 226.3 50 221.7 75 217.3C100 213 125 209 150 209C175 209 200 213 225 216.5C250 220 275 223 300 222.5C325 222 350 218 375 214.8C400 211.7 425 209.3 450 211.7C475 214 500 221 525 221.7C550 222.3 575 216.7 600 216C625 215.3 650 219.7 675 222.2C700 224.7 725 225.3 750 222.8C775 220.3 800 214.7 825 212C850 209.3 875 209.7 887.5 209.8L900 210L900 251L887.5 251C875 251 850 251 825 251C800 251 775 251 750 251C725 251 700 251 675 251C650 251 625 251 600 251C575 251 550 251 525 251C500 251 475 251 450 251C425 251 400 251 375 251C350 251 325 251 300 251C275 251 250 251 225 251C200 251 175 251 150 251C125 251 100 251 75 251C50 251 25 251 12.5 251L0 251Z" fill="#101a2b"></path><path d="M0 235L12.5 232.8C25 230.7 50 226.3 75 226C100 225.7 125 229.3 150 230.5C175 231.7 200 230.3 225 228.3C250 226.3 275 223.7 300 224.8C325 226 350 231 375 233.8C400 236.7 425 237.3 450 237.5C475 237.7 500 237.3 525 238.3C550 239.3 575 241.7 600 243C625 244.3 650 244.7 675 241.8C700 239 725 233 750 233.3C775 233.7 800 240.3 825 241.8C850 243.3 875 239.7 887.5 237.8L900 236L900 251L887.5 251C875 251 850 251 825 251C800 251 775 251 750 251C725 251 700 251 675 251C650 251 625 251 600 251C575 251 550 251 525 251C500 251 475 251 450 251C425 251 400 251 375 251C350 251 325 251 300 251C275 251 250 251 225 251C200 251 175 251 150 251C125 251 100 251 75 251C50 251 25 251 12.5 251L0 251Z" fill="#101828"></path></svg>