<svg id="visual" viewBox="0 0 900 600" width="900" height="600" xmlns="http://www.w3.org/2000/svg" xmlns:xlink="http://www.w3.org/1999/xlink" version="1.1"><g stroke-width="1" stroke-linejoin="bevel"><path d="M465 275L435 327L483 297Z" fill="#205a7a" stroke="#205a7a"></path><path d="M465 275L409 297L435 327Z" fill="#15384f" stroke="#15384f"></path><path d="M435 327L471 363L483 297Z" fill="#205a7a" stroke="#205a7a"></path><path d="M465 275L398 263L409 297Z" fill="#0c2435" stroke="#0c2435"></path><path d="M398 263L362 268L409 297Z" fill="#277297" stroke="#277297"></path><path d="M409 297L355 325L435 327Z" fill="#246688" stroke="#246688"></path><path d="M422 422L452 414L471 363Z" fill="#246688" stroke="#246688"></path><path d="M551 261L458 205L465 275Z" fill="#112e42" stroke="#112e42"></path><path d="M465 275L458 205L398 263Z" fill="#19435d" stroke="#19435d"></path><path d="M398 263L338 202L362 268Z" fill="#00101c" stroke="#00101c"></path><path d="M349 311L355 325L409 297Z" fill="#205a7a" stroke="#205a7a"></path><path d="M362 268L349 311L409 297Z" fill="#0c2435" stroke="#0c2435"></path><path d="M471 363L555 328L483 297Z" fill="#1d4e6b" stroke="#1d4e6b"></path><path d="M483 297L551 261L465 275Z" fill="#297ea6" stroke="#297ea6"></path><path d="M555 328L551 261L483 297Z" fill="#112e42" stroke="#112e42"></path><path d="M422 422L471 363L435 327Z" fill="#15384f" stroke="#15384f"></path><path d="M471 363L563 389L555 328Z" fill="#15384f" stroke="#15384f"></path><path d="M555 328L559 267L551 261Z" fill="#081a28" stroke="#081a28"></path><path d="M362 268L333 300L349 311Z" fill="#1d4e6b" stroke="#1d4e6b"></path><path d="M349 311L333 300L355 325Z" fill="#205a7a" stroke="#205a7a"></path><path d="M386 417L435 327L355 325Z" fill="#297ea6" stroke="#297ea6"></path><path d="M386 417L422 422L435 327Z" fill="#19435d" stroke="#19435d"></path><path d="M458 205L417 181L398 263Z" fill="#081a28" stroke="#081a28"></path><path d="M362 268L306 211L333 300Z" fill="#246688" stroke="#246688"></path><path d="M555 328L579 265L559 267Z" fill="#112e42" stroke="#112e42"></path><path d="M559 267L579 265L551 261Z" fill="#0c2435" stroke="#0c2435"></path><path d="M551 261L567 196L458 205Z" fill="#00101c" stroke="#00101c"></path><path d="M481 110L421 112L417 181Z" fill="#00101c" stroke="#00101c"></path><path d="M312 398L386 417L355 325Z" fill="#205a7a" stroke="#205a7a"></path><path d="M569 448L563 389L452 414Z" fill="#15384f" stroke="#15384f"></path><path d="M452 414L563 389L471 363Z" fill="#15384f" stroke="#15384f"></path><path d="M555 328L601 333L579 265Z" fill="#112e42" stroke="#112e42"></path><path d="M563 389L601 333L555 328Z" fill="#297ea6" stroke="#297ea6"></path><path d="M417 181L338 202L398 263Z" fill="#15384f" stroke="#15384f"></path><path d="M613 221L567 196L579 265Z" fill="#297ea6" stroke="#297ea6"></path><path d="M579 265L567 196L551 261Z" fill="#246688" stroke="#246688"></path><path d="M386 417L385 455L422 422Z" fill="#1d4e6b" stroke="#1d4e6b"></path><path d="M422 515L498 510L452 414Z" fill="#205a7a" stroke="#205a7a"></path><path d="M312 398L385 455L386 417Z" fill="#297ea6" stroke="#297ea6"></path><path d="M281 356L355 325L333 300Z" fill="#297ea6" stroke="#297ea6"></path><path d="M281 356L312 398L355 325Z" fill="#19435d" stroke="#19435d"></path><path d="M338 202L306 211L362 268Z" fill="#15384f" stroke="#15384f"></path><path d="M637 299L613 221L579 265Z" fill="#205a7a" stroke="#205a7a"></path><path d="M274 281L281 356L333 300Z" fill="#15384f" stroke="#15384f"></path><path d="M306 211L274 281L333 300Z" fill="#081a28" stroke="#081a28"></path><path d="M328 491L382 472L385 455Z" fill="#277297" stroke="#277297"></path><path d="M385 455L422 515L422 422Z" fill="#1d4e6b" stroke="#1d4e6b"></path><path d="M629 358L637 299L601 333Z" fill="#297ea6" stroke="#297ea6"></path><path d="M601 333L637 299L579 265Z" fill="#00101c" stroke="#00101c"></path><path d="M563 389L629 358L601 333Z" fill="#246688" stroke="#246688"></path><path d="M538 487L569 448L452 414Z" fill="#297ea6" stroke="#297ea6"></path><path d="M563 389L569 448L629 358Z" fill="#246688" stroke="#246688"></path><path d="M481 110L417 181L458 205Z" fill="#00101c" stroke="#00101c"></path><path d="M417 181L327 148L338 202Z" fill="#246688" stroke="#246688"></path><path d="M338 202L327 148L306 211Z" fill="#1d4e6b" stroke="#1d4e6b"></path><path d="M481 110L458 205L567 196Z" fill="#1d4e6b" stroke="#1d4e6b"></path><path d="M274 281L265 348L281 356Z" fill="#277297" stroke="#277297"></path><path d="M281 356L253 443L312 398Z" fill="#297ea6" stroke="#297ea6"></path><path d="M586 105L481 110L567 196Z" fill="#00101c" stroke="#00101c"></path><path d="M421 112L327 148L417 181Z" fill="#00101c" stroke="#00101c"></path><path d="M306 211L260 210L274 281Z" fill="#112e42" stroke="#112e42"></path><path d="M498 510L538 487L452 414Z" fill="#0c2435" stroke="#0c2435"></path><path d="M670 207L634 196L613 221Z" fill="#1d4e6b" stroke="#1d4e6b"></path><path d="M613 221L634 196L567 196Z" fill="#1d4e6b" stroke="#1d4e6b"></path><path d="M422 515L452 414L422 422Z" fill="#15384f" stroke="#15384f"></path><path d="M382 521L422 515L382 472Z" fill="#15384f" stroke="#15384f"></path><path d="M382 472L422 515L385 455Z" fill="#081a28" stroke="#081a28"></path><path d="M291 147L260 210L306 211Z" fill="#112e42" stroke="#112e42"></path><path d="M274 281L199 359L265 348Z" fill="#205a7a" stroke="#205a7a"></path><path d="M494 540L518 514L498 510Z" fill="#0c2435" stroke="#0c2435"></path><path d="M498 510L518 514L538 487Z" fill="#00101c" stroke="#00101c"></path><path d="M538 487L608 477L569 448Z" fill="#081a28" stroke="#081a28"></path><path d="M257 121L291 147L268 51Z" fill="#081a28" stroke="#081a28"></path><path d="M327 148L291 147L306 211Z" fill="#1d4e6b" stroke="#1d4e6b"></path><path d="M253 443L328 491L312 398Z" fill="#297ea6" stroke="#297ea6"></path><path d="M312 398L328 491L385 455Z" fill="#00101c" stroke="#00101c"></path><path d="M328 491L382 521L382 472Z" fill="#15384f" stroke="#15384f"></path><path d="M422 515L494 540L498 510Z" fill="#246688" stroke="#246688"></path><path d="M578 538L608 477L538 487Z" fill="#205a7a" stroke="#205a7a"></path><path d="M569 448L673 409L629 358Z" fill="#277297" stroke="#277297"></path><path d="M673 409L689 326L629 358Z" fill="#00101c" stroke="#00101c"></path><path d="M629 358L689 326L637 299Z" fill="#246688" stroke="#246688"></path><path d="M693 269L670 207L613 221Z" fill="#112e42" stroke="#112e42"></path><path d="M693 269L613 221L637 299Z" fill="#0c2435" stroke="#0c2435"></path><path d="M634 196L586 105L567 196Z" fill="#297ea6" stroke="#297ea6"></path><path d="M658 127L586 105L634 196Z" fill="#205a7a" stroke="#205a7a"></path><path d="M473 44L407 69L421 112Z" fill="#19435d" stroke="#19435d"></path><path d="M473 44L421 112L481 110Z" fill="#0c2435" stroke="#0c2435"></path><path d="M421 112L407 69L327 148Z" fill="#246688" stroke="#246688"></path><path d="M407 600L494 540L422 515Z" fill="#205a7a" stroke="#205a7a"></path><path d="M518 514L578 538L538 487Z" fill="#1d4e6b" stroke="#1d4e6b"></path><path d="M689 326L693 269L637 299Z" fill="#00101c" stroke="#00101c"></path><path d="M633 469L673 409L569 448Z" fill="#15384f" stroke="#15384f"></path><path d="M586 105L569 88L481 110Z" fill="#112e42" stroke="#112e42"></path><path d="M199 359L253 443L265 348Z" fill="#112e42" stroke="#112e42"></path><path d="M265 348L253 443L281 356Z" fill="#205a7a" stroke="#205a7a"></path><path d="M686 540L633 469L608 477Z" fill="#297ea6" stroke="#297ea6"></path><path d="M608 477L633 469L569 448Z" fill="#277297" stroke="#277297"></path><path d="M291 147L269 142L260 210Z" fill="#00101c" stroke="#00101c"></path><path d="M257 121L269 142L291 147Z" fill="#277297" stroke="#277297"></path><path d="M544 39L473 44L481 110Z" fill="#081a28" stroke="#081a28"></path><path d="M174 215L274 281L260 210Z" fill="#1d4e6b" stroke="#1d4e6b"></path><path d="M154 301L199 359L274 281Z" fill="#0c2435" stroke="#0c2435"></path><path d="M269 142L218 182L260 210Z" fill="#0c2435" stroke="#0c2435"></path><path d="M494 540L578 538L518 514Z" fill="#1d4e6b" stroke="#1d4e6b"></path><path d="M268 51L291 147L327 148Z" fill="#297ea6" stroke="#297ea6"></path><path d="M269 142L257 121L218 182Z" fill="#0c2435" stroke="#0c2435"></path><path d="M339 39L327 148L407 69Z" fill="#081a28" stroke="#081a28"></path><path d="M732 178L689 175L670 207Z" fill="#081a28" stroke="#081a28"></path><path d="M670 207L689 175L634 196Z" fill="#15384f" stroke="#15384f"></path><path d="M586 105L588 60L569 88Z" fill="#15384f" stroke="#15384f"></path><path d="M689 175L658 127L634 196Z" fill="#205a7a" stroke="#205a7a"></path><path d="M569 88L544 39L481 110Z" fill="#297ea6" stroke="#297ea6"></path><path d="M674 70L588 60L586 105Z" fill="#246688" stroke="#246688"></path><path d="M588 60L544 39L569 88Z" fill="#205a7a" stroke="#205a7a"></path><path d="M328 491L324 557L382 521Z" fill="#246688" stroke="#246688"></path><path d="M382 521L407 600L422 515Z" fill="#277297" stroke="#277297"></path><path d="M494 540L544 600L578 538Z" fill="#0c2435" stroke="#0c2435"></path><path d="M245 558L324 557L328 491Z" fill="#0c2435" stroke="#0c2435"></path><path d="M231 501L328 491L253 443Z" fill="#1d4e6b" stroke="#1d4e6b"></path><path d="M437 0L407 69L473 44Z" fill="#00101c" stroke="#00101c"></path><path d="M437 0L339 39L407 69Z" fill="#19435d" stroke="#19435d"></path><path d="M134 371L181 399L199 359Z" fill="#246688" stroke="#246688"></path><path d="M199 359L181 399L253 443Z" fill="#00101c" stroke="#00101c"></path><path d="M150 200L174 215L218 182Z" fill="#081a28" stroke="#081a28"></path><path d="M218 182L174 215L260 210Z" fill="#0c2435" stroke="#0c2435"></path><path d="M208 503L231 501L253 443Z" fill="#1d4e6b" stroke="#1d4e6b"></path><path d="M174 215L154 301L274 281Z" fill="#19435d" stroke="#19435d"></path><path d="M389 600L407 600L382 521Z" fill="#15384f" stroke="#15384f"></path><path d="M407 600L507 600L494 540Z" fill="#297ea6" stroke="#297ea6"></path><path d="M689 326L755 289L693 269Z" fill="#00101c" stroke="#00101c"></path><path d="M693 269L732 178L670 207Z" fill="#297ea6" stroke="#297ea6"></path><path d="M761 357L755 289L689 326Z" fill="#15384f" stroke="#15384f"></path><path d="M761 357L689 326L673 409Z" fill="#19435d" stroke="#19435d"></path><path d="M507 0L456 0L473 44Z" fill="#15384f" stroke="#15384f"></path><path d="M456 0L437 0L473 44Z" fill="#081a28" stroke="#081a28"></path><path d="M317 600L389 600L324 557Z" fill="#15384f" stroke="#15384f"></path><path d="M324 557L389 600L382 521Z" fill="#297ea6" stroke="#297ea6"></path><path d="M689 175L745 132L658 127Z" fill="#15384f" stroke="#15384f"></path><path d="M658 127L674 70L586 105Z" fill="#112e42" stroke="#112e42"></path><path d="M774 209L732 178L693 269Z" fill="#00101c" stroke="#00101c"></path><path d="M686 540L721 451L633 469Z" fill="#1d4e6b" stroke="#1d4e6b"></path><path d="M633 469L721 451L673 409Z" fill="#00101c" stroke="#00101c"></path><path d="M686 540L608 477L578 538Z" fill="#277297" stroke="#277297"></path><path d="M588 0L507 0L544 39Z" fill="#246688" stroke="#246688"></path><path d="M544 39L507 0L473 44Z" fill="#205a7a" stroke="#205a7a"></path><path d="M507 600L544 600L494 540Z" fill="#081a28" stroke="#081a28"></path><path d="M721 451L761 357L673 409Z" fill="#00101c" stroke="#00101c"></path><path d="M324 0L268 51L339 39Z" fill="#112e42" stroke="#112e42"></path><path d="M339 39L268 51L327 148Z" fill="#00101c" stroke="#00101c"></path><path d="M257 121L203 105L218 182Z" fill="#205a7a" stroke="#205a7a"></path><path d="M148 439L208 503L253 443Z" fill="#112e42" stroke="#112e42"></path><path d="M255 600L317 600L324 557Z" fill="#00101c" stroke="#00101c"></path><path d="M148 439L253 443L181 399Z" fill="#1d4e6b" stroke="#1d4e6b"></path><path d="M807 328L769 273L755 289Z" fill="#0c2435" stroke="#0c2435"></path><path d="M755 289L769 273L693 269Z" fill="#205a7a" stroke="#205a7a"></path><path d="M268 51L203 105L257 121Z" fill="#297ea6" stroke="#297ea6"></path><path d="M174 215L134 253L154 301Z" fill="#297ea6" stroke="#297ea6"></path><path d="M150 146L150 200L218 182Z" fill="#112e42" stroke="#112e42"></path><path d="M744 117L674 70L658 127Z" fill="#081a28" stroke="#081a28"></path><path d="M588 60L588 0L544 39Z" fill="#0c2435" stroke="#0c2435"></path><path d="M150 200L134 253L174 215Z" fill="#0c2435" stroke="#0c2435"></path><path d="M154 301L134 371L199 359Z" fill="#00101c" stroke="#00101c"></path><path d="M123 301L134 371L154 301Z" fill="#205a7a" stroke="#205a7a"></path><path d="M245 558L328 491L231 501Z" fill="#112e42" stroke="#112e42"></path><path d="M544 600L590 600L578 538Z" fill="#00101c" stroke="#00101c"></path><path d="M208 503L245 558L231 501Z" fill="#0c2435" stroke="#0c2435"></path><path d="M437 0L324 0L339 39Z" fill="#1d4e6b" stroke="#1d4e6b"></path><path d="M268 51L239 39L203 105Z" fill="#15384f" stroke="#15384f"></path><path d="M134 253L123 301L154 301Z" fill="#1d4e6b" stroke="#1d4e6b"></path><path d="M640 0L588 0L588 60Z" fill="#081a28" stroke="#081a28"></path><path d="M658 600L686 540L578 538Z" fill="#246688" stroke="#246688"></path><path d="M721 451L807 414L761 357Z" fill="#0c2435" stroke="#0c2435"></path><path d="M769 273L774 209L693 269Z" fill="#081a28" stroke="#081a28"></path><path d="M732 178L745 132L689 175Z" fill="#0c2435" stroke="#0c2435"></path><path d="M134 371L148 439L181 399Z" fill="#081a28" stroke="#081a28"></path><path d="M157 600L255 600L245 558Z" fill="#00101c" stroke="#00101c"></path><path d="M789 189L745 132L732 178Z" fill="#246688" stroke="#246688"></path><path d="M686 540L749 467L721 451Z" fill="#205a7a" stroke="#205a7a"></path><path d="M271 0L239 39L268 51Z" fill="#205a7a" stroke="#205a7a"></path><path d="M203 105L150 146L218 182Z" fill="#205a7a" stroke="#205a7a"></path><path d="M120 144L150 146L91 113Z" fill="#277297" stroke="#277297"></path><path d="M150 200L90 218L134 253Z" fill="#1d4e6b" stroke="#1d4e6b"></path><path d="M134 253L82 297L123 301Z" fill="#112e42" stroke="#112e42"></path><path d="M811 152L744 117L745 132Z" fill="#15384f" stroke="#15384f"></path><path d="M745 132L744 117L658 127Z" fill="#297ea6" stroke="#297ea6"></path><path d="M674 70L640 0L588 60Z" fill="#081a28" stroke="#081a28"></path><path d="M744 117L694 45L674 70Z" fill="#277297" stroke="#277297"></path><path d="M324 0L271 0L268 51Z" fill="#297ea6" stroke="#297ea6"></path><path d="M239 39L202 35L203 105Z" fill="#1d4e6b" stroke="#1d4e6b"></path><path d="M818 249L789 189L774 209Z" fill="#15384f" stroke="#15384f"></path><path d="M774 209L789 189L732 178Z" fill="#277297" stroke="#277297"></path><path d="M818 249L774 209L769 273Z" fill="#0c2435" stroke="#0c2435"></path><path d="M807 328L755 289L761 357Z" fill="#1d4e6b" stroke="#1d4e6b"></path><path d="M820 386L807 328L761 357Z" fill="#205a7a" stroke="#205a7a"></path><path d="M694 45L640 0L674 70Z" fill="#0c2435" stroke="#0c2435"></path><path d="M245 558L255 600L324 557Z" fill="#277297" stroke="#277297"></path><path d="M167 549L245 558L208 503Z" fill="#297ea6" stroke="#297ea6"></path><path d="M590 600L658 600L578 538Z" fill="#297ea6" stroke="#297ea6"></path><path d="M686 540L708 560L749 467Z" fill="#1d4e6b" stroke="#1d4e6b"></path><path d="M658 600L708 560L686 540Z" fill="#1d4e6b" stroke="#1d4e6b"></path><path d="M207 0L202 35L239 39Z" fill="#205a7a" stroke="#205a7a"></path><path d="M807 328L818 249L769 273Z" fill="#00101c" stroke="#00101c"></path><path d="M91 113L150 146L203 105Z" fill="#0c2435" stroke="#0c2435"></path><path d="M150 146L120 144L150 200Z" fill="#277297" stroke="#277297"></path><path d="M749 467L807 414L721 451Z" fill="#081a28" stroke="#081a28"></path><path d="M807 328L849 332L818 249Z" fill="#297ea6" stroke="#297ea6"></path><path d="M803 494L807 414L749 467Z" fill="#15384f" stroke="#15384f"></path><path d="M90 218L82 297L134 253Z" fill="#297ea6" stroke="#297ea6"></path><path d="M123 301L82 297L134 371Z" fill="#297ea6" stroke="#297ea6"></path><path d="M71 445L113 512L148 439Z" fill="#081a28" stroke="#081a28"></path><path d="M120 144L90 218L150 200Z" fill="#297ea6" stroke="#297ea6"></path><path d="M807 414L820 386L761 357Z" fill="#00101c" stroke="#00101c"></path><path d="M113 512L208 503L148 439Z" fill="#1d4e6b" stroke="#1d4e6b"></path><path d="M113 512L167 549L208 503Z" fill="#00101c" stroke="#00101c"></path><path d="M818 249L814 160L789 189Z" fill="#277297" stroke="#277297"></path><path d="M789 189L811 152L745 132Z" fill="#19435d" stroke="#19435d"></path><path d="M799 25L754 0L694 45Z" fill="#297ea6" stroke="#297ea6"></path><path d="M814 160L811 152L789 189Z" fill="#246688" stroke="#246688"></path><path d="M118 30L91 113L203 105Z" fill="#19435d" stroke="#19435d"></path><path d="M271 0L207 0L239 39Z" fill="#112e42" stroke="#112e42"></path><path d="M900 348L849 332L820 386Z" fill="#297ea6" stroke="#297ea6"></path><path d="M820 386L849 332L807 328Z" fill="#1d4e6b" stroke="#1d4e6b"></path><path d="M818 249L900 169L814 160Z" fill="#205a7a" stroke="#205a7a"></path><path d="M803 504L749 467L708 560Z" fill="#1d4e6b" stroke="#1d4e6b"></path><path d="M803 504L803 494L749 467Z" fill="#246688" stroke="#246688"></path><path d="M807 414L846 449L820 386Z" fill="#112e42" stroke="#112e42"></path><path d="M71 445L148 439L134 371Z" fill="#15384f" stroke="#15384f"></path><path d="M815 514L803 504L754 600Z" fill="#19435d" stroke="#19435d"></path><path d="M803 494L846 449L807 414Z" fill="#15384f" stroke="#15384f"></path><path d="M0 245L0 324L82 297Z" fill="#277297" stroke="#277297"></path><path d="M120 144L70 172L90 218Z" fill="#205a7a" stroke="#205a7a"></path><path d="M91 113L70 172L120 144Z" fill="#0c2435" stroke="#0c2435"></path><path d="M113 512L128 545L167 549Z" fill="#112e42" stroke="#112e42"></path><path d="M167 549L157 600L245 558Z" fill="#15384f" stroke="#15384f"></path><path d="M44 388L134 371L82 297Z" fill="#277297" stroke="#277297"></path><path d="M44 388L71 445L134 371Z" fill="#297ea6" stroke="#297ea6"></path><path d="M92 561L137 600L128 545Z" fill="#1d4e6b" stroke="#1d4e6b"></path><path d="M118 30L203 105L202 35Z" fill="#19435d" stroke="#19435d"></path><path d="M36 393L44 388L0 388Z" fill="#246688" stroke="#246688"></path><path d="M754 600L803 504L708 560Z" fill="#112e42" stroke="#112e42"></path><path d="M803 504L815 514L803 494Z" fill="#246688" stroke="#246688"></path><path d="M815 514L846 449L803 494Z" fill="#246688" stroke="#246688"></path><path d="M137 600L167 549L128 545Z" fill="#297ea6" stroke="#297ea6"></path><path d="M137 600L157 600L167 549Z" fill="#0c2435" stroke="#0c2435"></path><path d="M658 600L752 600L708 560Z" fill="#081a28" stroke="#081a28"></path><path d="M207 0L159 0L202 35Z" fill="#205a7a" stroke="#205a7a"></path><path d="M752 600L754 600L708 560Z" fill="#081a28" stroke="#081a28"></path><path d="M799 25L694 45L744 117Z" fill="#0c2435" stroke="#0c2435"></path><path d="M694 45L754 0L640 0Z" fill="#205a7a" stroke="#205a7a"></path><path d="M44 388L36 393L71 445Z" fill="#277297" stroke="#277297"></path><path d="M92 561L128 545L113 512Z" fill="#277297" stroke="#277297"></path><path d="M0 332L44 388L82 297Z" fill="#15384f" stroke="#15384f"></path><path d="M159 0L118 30L202 35Z" fill="#246688" stroke="#246688"></path><path d="M0 245L90 218L0 192Z" fill="#19435d" stroke="#19435d"></path><path d="M92 561L113 512L0 549Z" fill="#00101c" stroke="#00101c"></path><path d="M159 0L131 0L118 30Z" fill="#246688" stroke="#246688"></path><path d="M857 85L744 117L811 152Z" fill="#112e42" stroke="#112e42"></path><path d="M857 85L799 25L744 117Z" fill="#205a7a" stroke="#205a7a"></path><path d="M857 85L811 152L900 109Z" fill="#112e42" stroke="#112e42"></path><path d="M0 475L113 512L71 445Z" fill="#246688" stroke="#246688"></path><path d="M900 348L900 301L849 332Z" fill="#246688" stroke="#246688"></path><path d="M849 332L900 301L818 249Z" fill="#205a7a" stroke="#205a7a"></path><path d="M900 438L820 386L846 449Z" fill="#00101c" stroke="#00101c"></path><path d="M900 438L900 348L820 386Z" fill="#297ea6" stroke="#297ea6"></path><path d="M900 301L900 256L818 249Z" fill="#1d4e6b" stroke="#1d4e6b"></path><path d="M0 245L82 297L90 218Z" fill="#277297" stroke="#277297"></path><path d="M36 393L0 475L71 445Z" fill="#081a28" stroke="#081a28"></path><path d="M90 218L70 172L0 192Z" fill="#297ea6" stroke="#297ea6"></path><path d="M0 324L0 332L82 297Z" fill="#246688" stroke="#246688"></path><path d="M51 77L91 113L118 30Z" fill="#19435d" stroke="#19435d"></path><path d="M51 77L70 172L91 113Z" fill="#277297" stroke="#277297"></path><path d="M900 109L811 152L814 160Z" fill="#246688" stroke="#246688"></path><path d="M0 332L0 388L44 388Z" fill="#112e42" stroke="#112e42"></path><path d="M43 0L51 77L118 30Z" fill="#205a7a" stroke="#205a7a"></path><path d="M900 256L900 169L818 249Z" fill="#0c2435" stroke="#0c2435"></path><path d="M900 451L900 438L846 449Z" fill="#19435d" stroke="#19435d"></path><path d="M900 451L846 449L815 514Z" fill="#1d4e6b" stroke="#1d4e6b"></path><path d="M0 88L0 192L70 172Z" fill="#112e42" stroke="#112e42"></path><path d="M858 0L813 0L799 25Z" fill="#277297" stroke="#277297"></path><path d="M799 25L813 0L754 0Z" fill="#277297" stroke="#277297"></path><path d="M900 563L900 451L815 514Z" fill="#277297" stroke="#277297"></path><path d="M0 388L0 475L36 393Z" fill="#277297" stroke="#277297"></path><path d="M900 169L900 109L814 160Z" fill="#0c2435" stroke="#0c2435"></path><path d="M857 85L858 0L799 25Z" fill="#112e42" stroke="#112e42"></path><path d="M754 600L844 600L815 514Z" fill="#277297" stroke="#277297"></path><path d="M0 33L0 88L51 77Z" fill="#1d4e6b" stroke="#1d4e6b"></path><path d="M51 77L0 88L70 172Z" fill="#277297" stroke="#277297"></path><path d="M900 53L858 0L857 85Z" fill="#297ea6" stroke="#297ea6"></path><path d="M131 0L43 0L118 30Z" fill="#1d4e6b" stroke="#1d4e6b"></path><path d="M900 109L900 53L857 85Z" fill="#15384f" stroke="#15384f"></path><path d="M0 475L0 549L113 512Z" fill="#112e42" stroke="#112e42"></path><path d="M92 561L30 600L137 600Z" fill="#19435d" stroke="#19435d"></path><path d="M844 600L900 563L815 514Z" fill="#246688" stroke="#246688"></path><path d="M0 549L30 600L92 561Z" fill="#00101c" stroke="#00101c"></path><path d="M43 0L0 33L51 77Z" fill="#205a7a" stroke="#205a7a"></path><path d="M844 600L900 600L900 563Z" fill="#1d4e6b" stroke="#1d4e6b"></path><path d="M900 53L900 0L858 0Z" fill="#277297" stroke="#277297"></path><path d="M0 549L0 600L30 600Z" fill="#081a28" stroke="#081a28"></path><path d="M43 0L0 0L0 33Z" fill="#1d4e6b" stroke="#1d4e6b"></path></g></svg>